<svg id="Layer_1" data-name="Layer 1" xmlns="http://www.w3.org/2000/svg" viewBox="0 0 1165.2 164"><defs><style>.cls-1{fill:none;}.cls-2{fill:#dcddde;}</style></defs><title>separator-before-gray</title><rect class="cls-1" x="0.5" y="-2194" width="1164.2" height="5429.2"/><path class="cls-2" d="M1023.6,43.7c.1.1.1.2.2.4C1023.8,43.8,1023.7,43.7,1023.6,43.7Z"/><path class="cls-2" d="M1165.2,164c0-56.56.2-158.51,0-153.11-1.4-2.9-2.6-5.29-4-8.19-7.3,4.5-11.1,9.9-14.2,10.5-12.9-2.2-26.1,2.7-32.2,12-9.3-1.5-4-5.8-9.8,5.6-3-2.6-5.9-5.2-8.9-7.8-5.9,14.4-6.7,9.1-12.3,18.9-14.6-7.3-1.8.1-13.3,3.7l-7.8-9.6c-11.9,15.8-20.6,20.9-33.1,9.1l-2.7,8.1a36.73,36.73,0,0,0-3-9.2c-.5,3.2-23.2,25.8-23.2,10.9-1.5,2.6-85.8-23.9-97.4-24.2-7.8-3.6-12.9-6.1-12.9-6.1-44-29-91.3-18-91.3-18-30.6,5.5-75.1,6.5-75.1,6.5-6.7,9-62.9,24-62.9,24l-20,15c-63.4,26-240.4,25.5-240.4,25.5-33.4,21-123.5,21.1-123.5,21.1-17.8,11.5-63.4,20.1-63.4,20.1-74.6,4.5-96.8,25.7-96.8,25.7C66.1,139.1,0,158.56,0,158.56V164Z"/><path class="cls-2" d="M973,56.7c-8-.9-21-5.3-34.3-10.6"/></svg>