<?xml version="1.0" encoding="utf-8"?>
<!-- Generator: Adobe Illustrator 21.1.0, SVG Export Plug-In . SVG Version: 6.00 Build 0)  -->
<svg version="1.1" id="Layer_1" xmlns="http://www.w3.org/2000/svg" xmlns:xlink="http://www.w3.org/1999/xlink" x="0px" y="0px"
	 viewBox="0 0 1165.2 51" style="enable-background:new 0 0 1165.2 51;" xml:space="preserve">
<style type="text/css">
	.st0{fill:none;}
	.st1{fill:#FFFFFF;}
</style>
<rect x="0.5" y="-705.5" class="st0" width="1164.2" height="5429.2"/>
<g>
	<g>
		<g>
			<path class="st1" d="M1165.2,51H0l0-27.7c3.7-0.7,7.1-1.4,9.8-2.1c8.2-2.2,13.5-4.1,21.7-2.8c3.5,0.6,6.8,3.2,10.2,4
				c4.1,1,9.1-2.4,11.8-1.6C70.1,25.8,79.8,43.4,99,43c15.2-0.3,24.5-16.5,38.4-17.6c9.3-0.7,16.7,8.3,28.2,7.2
				c32.8-3.2,55.9-46.4,88.8-21.2c16.1,12.3,25.4,25.7,47,29.5c20.3,3.6,40.2-2.3,60.5-1.5c11.9,0.4,24.3,6.3,36.2,3.7
				c7.9-1.7,13.1-8.6,21.5-10.1c8-1.4,16,1.5,24.2-0.2c8-1.7,14.5-7.4,22.4-9c34.7-7.2,62.9,30.5,95.5,24.1
				c12.1-2.4,18.1-16.8,28-18.8c8.3-1.7,15.4,8.8,26.4,9.1c39.6,1.1,60.7-45.6,100.5-17.3c18.7,13.3,33,23.8,56.4,26.9
				c19.2,2.6,37.4-5.1,56.2-3.2c19.1,2,28.3,9.2,46.1-1.7c16.3-10,32.5-10,48.9-18.3c10.3-5.1,9.8-8.5,21.7-6.6
				c8.2,1.3,15.1,8,23.4,9.6c5.1,1.1,10-1.4,15.3,0c8.1,2.1,14.3,8.8,21.8,12.2c18.7,8.5,37.4,9,55.4-0.8
				c19-10.4,17.6-10.4,36.8-4.4c17.6,5.5,45.4-2.1,66.6-12.6V51z"/>
		</g>
	</g>
</g>
</svg>
