<svg id="Layer_1" data-name="Layer 1" xmlns="http://www.w3.org/2000/svg" viewBox="0 0 1165.2 64"><defs><style>.cls-1{fill:none;}.cls-2{fill:#e6e7e8;}</style></defs><title>separator-before-lightgray</title><rect class="cls-1" x="0.5" y="-1451" width="1164.2" height="5429.2"/><path class="cls-2" d="M1165.2,64l.2-10.8c-7.8,17.3-96.6-6.3-111.3-5.8-27.4,1-51.1-12.7-78.1-11.8-13,.5-23.5,6.7-36.7,5.1-9.4-1.2-18.2-6-27.8-7.3-55.6-7.5-117.8-10.1-172,5.9-27.6,8.2-38,12.3-66.1,4.3-32.1-9.1-47.3,4.9-76.8,10-22.8,4-52.8,6.3-76.2,4.9-10.9-.7-24.9-1.1-34.9-2.8-6.8-1.1-16.8-3.1-23.7-3.4-9.6-.4-21.3,6.5-32.2,6.4-15-.1-29.8-4.3-44.9-4.5-27.6-.4-52.8,3.9-80.5,2.7-28.4-1.3-56.8-.7-85.1-1.9-29-1.3-50.4-11.7-76.3-23.4C117.9,20.3,93.5,13.7,66,13.5c-14.4-.1-28.4,2.2-42.7-.7C14.4,11.1,9.3,2.36,0,4.36.06,48.53,0,64,0,64Z"/></svg>