<?xml version="1.0" encoding="utf-8"?>
<!-- Generator: Adobe Illustrator 21.1.0, SVG Export Plug-In . SVG Version: 6.00 Build 0)  -->
<svg version="1.1" id="Layer_1" xmlns="http://www.w3.org/2000/svg" xmlns:xlink="http://www.w3.org/1999/xlink" x="0px" y="0px"
	 viewBox="0 0 41.7 41.1" style="enable-background:new 0 0 41.7 41.1;" xml:space="preserve">
<style type="text/css">
	.st0{clip-path:url(#SVGID_2_);}
	.st1{fill:#FFFFFF;}
	.st2{fill:#E6E7E8;}
	.st3{fill:#DCDDDE;}
	.st4{fill-rule:evenodd;clip-rule:evenodd;fill:#D5D7D8;}
	.st5{fill:#D5D7D8;}
	.st6{fill-rule:evenodd;clip-rule:evenodd;fill:#CBCCCE;}
	.st7{fill-rule:evenodd;clip-rule:evenodd;fill:#C2C4C6;}
	.st8{fill-rule:evenodd;clip-rule:evenodd;fill:#B8BABC;}
	.st9{fill-rule:evenodd;clip-rule:evenodd;fill:#A7A9AC;}
	.st10{fill:#068CAE;}
	.st11{fill:#C2C4C6;}
	.st12{opacity:0.61;fill:url(#SVGID_5_);}
	.st13{fill:#E36F1E;}
	.st14{fill:none;stroke:#FFFFFF;stroke-width:1.6187;stroke-miterlimit:10;}
	.st15{fill:#282829;}
	.st16{fill:none;stroke:#CFDE00;stroke-width:4.1812;stroke-miterlimit:10;}
	.st17{fill:none;stroke:#D2DE00;stroke-width:4.1812;stroke-miterlimit:10;}
	.st18{fill:#2D2C2D;}
	.st19{fill:#D2DE00;stroke:#D2DE00;stroke-width:1.6523;stroke-miterlimit:10;}
	.st20{fill:#C4CF3F;}
	.st21{fill:#68A9D2;}
	.st22{fill:#CDCEC7;}
	.st23{fill:#4D8AAA;stroke:#E6E6E7;stroke-miterlimit:10;}
	.st24{opacity:0.32;}
	.st25{opacity:0.95;}
	.st26{opacity:0.99;}
	.st27{opacity:0.42;}
	.st28{fill:#8B4D19;}
	.st29{fill:#C96F2A;}
	.st30{fill:#90CEF4;}
	.st31{fill:#F1F2EA;}
	.st32{fill:#CA702F;}
	.st33{fill:#D5CDC5;}
	.st34{fill:#EBBEAD;}
	.st35{fill:#494D54;}
	.st36{fill:#90C6AB;}
	.st37{fill:#D25945;}
	.st38{fill:#51798F;}
	.st39{fill:#E9AF32;}
	.st40{fill:#84512A;}
	.st41{fill:#699A57;}
	.st42{fill:#D97E8F;}
	.st43{fill:#CF7738;}
	.st44{fill:#4D8AAA;}
	.st45{fill:none;stroke:#4D8AAA;stroke-width:4;stroke-linecap:round;stroke-linejoin:round;stroke-miterlimit:10;}
	.st46{clip-path:url(#SVGID_13_);}
	.st47{opacity:0.9;fill:#0089A9;}
	.st48{opacity:0.9;fill:#C96F2A;}
</style>
<g>
	<defs>
		<rect id="SVGID_1_" x="-1315.3" y="-42.9" width="1164.2" height="5429.2"/>
	</defs>
	<clipPath id="SVGID_2_">
		<use xlink:href="#SVGID_1_"  style="overflow:visible;"/>
	</clipPath>
</g>
<g>
	<path class="st18" d="M0,19.8c0-2.7,2.2-5,5-5h1.7c2.7,0,5,2.2,5,5l0,1.6c0,2.7-2.3,5-5,5H5c-2.8,0-5-2.2-5-5V19.8z"/>
	<path class="st18" d="M15,19.8c0-2.7,2.2-5,5-5h1.7c2.7,0,5,2.2,5,5l0,1.6c0,2.7-2.2,5-5,5H20c-2.7,0-5-2.2-5-5V19.8z"/>
	<path class="st18" d="M15,5c0-2.7,2.2-5,5-5h1.7c2.7,0,5,2.2,5,5l0,1.6c0,2.7-2.2,5-5,5H20c-2.7,0-5-2.2-5-5V5z"/>
	<path class="st18" d="M30,19.8c0-2.7,2.2-5,5-5h1.7c2.7,0,5,2.2,5,5l0,1.6c0,2.7-2.2,5-5,5H35c-2.7,0-5-2.2-5-5V19.8z"/>
	<path class="st18" d="M15,34.6c0-2.7,2.2-5,5-5h1.7c2.7,0,5,2.2,5,5l0,1.6c0,2.7-2.2,5-5,5H20c-2.7,0-5-2.2-5-5V34.6z"/>
</g>
</svg>
