<?xml version="1.0" encoding="utf-8"?>
<!-- Generator: Adobe Illustrator 21.1.0, SVG Export Plug-In . SVG Version: 6.00 Build 0)  -->
<svg version="1.1" id="Layer_1" xmlns="http://www.w3.org/2000/svg" xmlns:xlink="http://www.w3.org/1999/xlink" x="0px" y="0px"
	 viewBox="0 0 47 34.8" style="enable-background:new 0 0 47 34.8;" xml:space="preserve">
<style type="text/css">
	.st0{clip-path:url(#SVGID_2_);}
	.st1{fill:#FFFFFF;}
	.st2{fill:#E6E7E8;}
	.st3{fill:#DCDDDE;}
	.st4{fill-rule:evenodd;clip-rule:evenodd;fill:#D5D7D8;}
	.st5{fill:#D5D7D8;}
	.st6{fill-rule:evenodd;clip-rule:evenodd;fill:#CBCCCE;}
	.st7{fill-rule:evenodd;clip-rule:evenodd;fill:#C2C4C6;}
	.st8{fill-rule:evenodd;clip-rule:evenodd;fill:#B8BABC;}
	.st9{fill-rule:evenodd;clip-rule:evenodd;fill:#A7A9AC;}
	.st10{fill:#068CAE;}
	.st11{fill:#C2C4C6;}
	.st12{opacity:0.61;fill:url(#SVGID_5_);}
	.st13{fill:#E36F1E;}
	.st14{fill:none;stroke:#FFFFFF;stroke-width:1.6187;stroke-miterlimit:10;}
	.st15{fill:#282829;}
	.st16{fill:none;stroke:#CFDE00;stroke-width:4.1812;stroke-miterlimit:10;}
	.st17{fill:none;stroke:#D2DE00;stroke-width:4.1812;stroke-miterlimit:10;}
	.st18{fill:#2D2C2D;}
	.st19{fill:#D2DE00;stroke:#D2DE00;stroke-width:1.6523;stroke-miterlimit:10;}
	.st20{fill:#C4CF3F;}
	.st21{fill:#68A9D2;}
	.st22{fill:#CDCEC7;}
	.st23{fill:#4D8AAA;stroke:#E6E6E7;stroke-miterlimit:10;}
	.st24{opacity:0.32;}
	.st25{opacity:0.95;}
	.st26{opacity:0.99;}
	.st27{opacity:0.42;}
	.st28{fill:#8B4D19;}
	.st29{fill:#C96F2A;}
	.st30{fill:#90CEF4;}
	.st31{fill:#F1F2EA;}
	.st32{fill:#CA702F;}
	.st33{fill:#D5CDC5;}
	.st34{fill:#EBBEAD;}
	.st35{fill:#494D54;}
	.st36{fill:#90C6AB;}
	.st37{fill:#D25945;}
	.st38{fill:#51798F;}
	.st39{fill:#E9AF32;}
	.st40{fill:#84512A;}
	.st41{fill:#699A57;}
	.st42{fill:#D97E8F;}
	.st43{fill:#CF7738;}
	.st44{fill:#4D8AAA;}
	.st45{fill:none;stroke:#4D8AAA;stroke-width:4;stroke-linecap:round;stroke-linejoin:round;stroke-miterlimit:10;}
	.st46{clip-path:url(#SVGID_13_);}
	.st47{opacity:0.9;fill:#0089A9;}
	.st48{opacity:0.9;fill:#C96F2A;}
</style>
<g>
	<defs>
		<rect id="SVGID_1_" x="-1239" y="67" width="1164.2" height="5429.2"/>
	</defs>
	<clipPath id="SVGID_2_">
		<use xlink:href="#SVGID_1_"  style="overflow:visible;"/>
	</clipPath>
</g>
<g>
	<g>
		<path class="st18" d="M12.7,18.9c-0.2,0-0.4,0-0.6-0.1c-0.2-0.1-0.3-0.2-0.5-0.3c-0.1-0.1-0.2-0.3-0.3-0.4
			c-0.1-0.2-0.1-0.3-0.1-0.5v-0.4c0-0.2,0-0.4,0.1-0.5c0.1-0.2,0.2-0.3,0.3-0.4c0.1-0.1,0.3-0.2,0.5-0.3c0.2-0.1,0.4-0.1,0.6-0.1
			h4.8c0.2,0,0.4,0,0.6,0.1c0.2,0.1,0.3,0.2,0.5,0.3c0.1,0.1,0.2,0.3,0.3,0.4c0.1,0.2,0.1,0.3,0.1,0.5v0.4c0,0.2,0,0.4-0.1,0.5
			c-0.1,0.2-0.2,0.3-0.3,0.4c-0.1,0.1-0.3,0.2-0.5,0.3c-0.2,0.1-0.4,0.1-0.6,0.1H12.7z"/>
		<path class="st18" d="M1.4,18.9c-0.2,0-0.4,0-0.6-0.1c-0.2-0.1-0.3-0.2-0.5-0.3c-0.1-0.1-0.2-0.3-0.3-0.4C0,18,0,17.8,0,17.6v-0.4
			c0-0.2,0-0.4,0.1-0.5c0.1-0.2,0.2-0.3,0.3-0.4C0.5,16.1,0.7,16,0.9,16c0.2-0.1,0.4-0.1,0.6-0.1h0.3c0.2,0,0.4,0,0.6,0.1
			c0.2,0.1,0.3,0.2,0.5,0.3c0.1,0.1,0.2,0.3,0.3,0.4c0.1,0.2,0.1,0.3,0.1,0.5v0.4c0,0.2,0,0.4-0.1,0.5c-0.1,0.2-0.2,0.3-0.3,0.4
			c-0.1,0.1-0.3,0.2-0.5,0.3c-0.2,0.1-0.4,0.1-0.6,0.1H1.4z"/>
		<path class="st18" d="M5.2,18.9c-0.2,0-0.4,0-0.6-0.1c-0.2-0.1-0.3-0.2-0.5-0.3c-0.1-0.1-0.2-0.3-0.3-0.4
			c-0.1-0.2-0.1-0.3-0.1-0.5v-0.4c0-0.2,0-0.4,0.1-0.5c0.1-0.2,0.2-0.3,0.3-0.4C4.3,16.1,4.5,16,4.7,16c0.2-0.1,0.4-0.1,0.6-0.1h0.3
			c0.2,0,0.4,0,0.6,0.1c0.2,0.1,0.3,0.2,0.5,0.3c0.1,0.1,0.2,0.3,0.3,0.4c0.1,0.2,0.1,0.3,0.1,0.5v0.4c0,0.2,0,0.4-0.1,0.5
			c-0.1,0.2-0.2,0.3-0.3,0.4c-0.1,0.1-0.3,0.2-0.5,0.3c-0.2,0.1-0.4,0.1-0.6,0.1H5.2z"/>
		<path class="st18" d="M8.9,18.9c-0.2,0-0.4,0-0.6-0.1c-0.2-0.1-0.3-0.2-0.5-0.3c-0.1-0.1-0.2-0.3-0.3-0.4
			c-0.1-0.2-0.1-0.3-0.1-0.5v-0.4c0-0.2,0-0.4,0.1-0.5c0.1-0.2,0.2-0.3,0.3-0.4C8,16.1,8.2,16,8.3,16c0.2-0.1,0.4-0.1,0.6-0.1h0.3
			c0.2,0,0.4,0,0.6,0.1c0.2,0.1,0.3,0.2,0.5,0.3c0.1,0.1,0.2,0.3,0.3,0.4c0.1,0.2,0.1,0.3,0.1,0.5v0.4c0,0.2,0,0.4-0.1,0.5
			c-0.1,0.2-0.2,0.3-0.3,0.4c-0.1,0.1-0.3,0.2-0.5,0.3c-0.2,0.1-0.4,0.1-0.6,0.1H8.9z"/>
		<path class="st18" d="M37.8,18.9c-0.2,0-0.4,0-0.6-0.1c-0.2-0.1-0.3-0.2-0.5-0.3c-0.1-0.1-0.2-0.3-0.3-0.4
			c-0.1-0.2-0.1-0.3-0.1-0.5v-0.4c0-0.2,0-0.4,0.1-0.5c0.1-0.2,0.2-0.3,0.3-0.4c0.1-0.1,0.3-0.2,0.5-0.3c0.2-0.1,0.4-0.1,0.6-0.1
			h0.3c0.2,0,0.4,0,0.6,0.1c0.2,0.1,0.3,0.2,0.5,0.3c0.1,0.1,0.2,0.3,0.3,0.4c0.1,0.2,0.1,0.3,0.1,0.5v0.4c0,0.2,0,0.4-0.1,0.5
			c-0.1,0.2-0.2,0.3-0.3,0.4c-0.1,0.1-0.3,0.2-0.5,0.3c-0.2,0.1-0.4,0.1-0.6,0.1H37.8z"/>
		<path class="st18" d="M41.6,18.9c-0.2,0-0.4,0-0.6-0.1c-0.2-0.1-0.3-0.2-0.5-0.3c-0.1-0.1-0.2-0.3-0.3-0.4
			c-0.1-0.2-0.1-0.3-0.1-0.5v-0.4c0-0.2,0-0.4,0.1-0.5c0.1-0.2,0.2-0.3,0.3-0.4c0.1-0.1,0.3-0.2,0.5-0.3c0.2-0.1,0.4-0.1,0.6-0.1
			h0.3c0.2,0,0.4,0,0.6,0.1c0.2,0.1,0.3,0.2,0.5,0.3c0.1,0.1,0.2,0.3,0.3,0.4c0.1,0.2,0.1,0.3,0.1,0.5v0.4c0,0.2,0,0.4-0.1,0.5
			c-0.1,0.2-0.2,0.3-0.3,0.4c-0.1,0.1-0.3,0.2-0.5,0.3c-0.2,0.1-0.4,0.1-0.6,0.1H41.6z"/>
		<path class="st18" d="M45.3,18.9c-0.2,0-0.4,0-0.6-0.1c-0.2-0.1-0.3-0.2-0.5-0.3c-0.1-0.1-0.2-0.3-0.3-0.4
			c-0.1-0.2-0.1-0.3-0.1-0.5v-0.4c0-0.2,0-0.4,0.1-0.5c0.1-0.2,0.2-0.3,0.3-0.4c0.1-0.1,0.3-0.2,0.5-0.3c0.2-0.1,0.4-0.1,0.6-0.1
			h0.3c0.2,0,0.4,0,0.6,0.1c0.2,0.1,0.3,0.2,0.5,0.3c0.1,0.1,0.2,0.3,0.3,0.4c0.1,0.2,0.1,0.3,0.1,0.5v0.4c0,0.2,0,0.4-0.1,0.5
			c-0.1,0.2-0.2,0.3-0.3,0.4c-0.1,0.1-0.3,0.2-0.5,0.3c-0.2,0.1-0.4,0.1-0.6,0.1H45.3z"/>
		<path class="st18" d="M21.1,18.9c-0.2,0-0.4,0-0.6-0.1c-0.2-0.1-0.3-0.2-0.5-0.3c-0.1-0.1-0.2-0.3-0.3-0.4
			c-0.1-0.2-0.1-0.3-0.1-0.5v-0.4c0-0.2,0-0.4,0.1-0.5c0.1-0.2,0.2-0.3,0.3-0.4c0.1-0.1,0.3-0.2,0.5-0.3c0.2-0.1,0.4-0.1,0.6-0.1
			h4.8c0.2,0,0.4,0,0.6,0.1c0.2,0.1,0.3,0.2,0.5,0.3c0.1,0.1,0.2,0.3,0.3,0.4c0.1,0.2,0.1,0.3,0.1,0.5v0.4c0,0.2,0,0.4-0.1,0.5
			c-0.1,0.2-0.2,0.3-0.3,0.4c-0.1,0.1-0.3,0.2-0.5,0.3c-0.2,0.1-0.4,0.1-0.6,0.1H21.1z"/>
		<path class="st18" d="M29.5,18.9c-0.2,0-0.4,0-0.6-0.1c-0.2-0.1-0.3-0.2-0.5-0.3c-0.1-0.1-0.2-0.3-0.3-0.4
			C28.1,18,28,17.8,28,17.6v-0.4c0-0.2,0-0.4,0.1-0.5c0.1-0.2,0.2-0.3,0.3-0.4c0.1-0.1,0.3-0.2,0.5-0.3c0.2-0.1,0.4-0.1,0.6-0.1h4.8
			c0.2,0,0.4,0,0.6,0.1c0.2,0.1,0.3,0.2,0.5,0.3c0.1,0.1,0.2,0.3,0.3,0.4c0.1,0.2,0.1,0.3,0.1,0.5v0.4c0,0.2,0,0.4-0.1,0.5
			c-0.1,0.2-0.2,0.3-0.3,0.4c-0.1,0.1-0.3,0.2-0.5,0.3c-0.2,0.1-0.4,0.1-0.6,0.1H29.5z"/>
	</g>
	<g>
		<path class="st18" d="M0,33.9c0,0.5,0.4,0.9,0.9,0.9H46c0.5,0,0.9-0.4,0.9-0.9v-10c0-0.5-0.4-0.9-0.9-0.9H0.9
			c-0.5,0-0.9,0.4-0.9,0.9V33.9z"/>
	</g>
	<g>
		<path class="st18" d="M0,11c0,0.5,0.4,0.9,0.9,0.9H46c0.5,0,0.9-0.4,0.9-0.9v-10C47,0.4,46.6,0,46,0H0.9C0.4,0,0,0.4,0,0.9V11z"/>
	</g>
</g>
</svg>
